<svg width="33.941208" height="33.868774" viewBox="0 0 33.9412 33.8688" fill="none" xmlns="http://www.w3.org/2000/svg" xmlns:xlink="http://www.w3.org/1999/xlink">
	<desc>
			Created with Pixso.
	</desc>
	<defs/>
	<path id="Vector" d="M26.41 22.23C24.54 21.29 24.39 21.21 22.92 22.3C21.94 23.03 21.29 23.68 20.14 23.44C18.99 23.19 16.5 21.82 14.32 19.64C12.13 17.47 10.68 14.9 10.43 13.76C10.18 12.61 10.85 11.97 11.57 10.99C12.58 9.6 12.51 9.37 11.64 7.5C10.96 6.05 9.11 3.12 7.88 1.9C6.56 0.6 6.56 0.83 5.7 1.18C5.01 1.48 4.35 1.83 3.72 2.24C2.49 3.06 1.8 3.74 1.33 4.76C0.85 5.78 0.63 8.17 3.1 12.66C5.57 17.14 7.3 19.43 10.88 23C14.46 26.57 17.22 28.49 21.24 30.75C26.23 33.54 28.14 33 29.16 32.52C30.18 32.04 30.87 31.37 31.69 30.14C32.1 29.51 32.46 28.84 32.75 28.15C33.1 27.3 33.33 27.3 32.03 25.98C30.8 24.75 27.85 22.96 26.41 22.23Z" stroke="#CDA274" stroke-opacity="1.000000" stroke-width="2.000000"/>
</svg>
