<svg width="18.000000" height="15.000000" viewBox="0 0 18 15" fill="none" xmlns="http://www.w3.org/2000/svg" xmlns:xlink="http://www.w3.org/1999/xlink">
	<desc>
			Created with Pixso.
	</desc>
	<defs>
		<clipPath id="clip2_399">
			<rect id="IMAGE" width="18.000000" height="15.000000" fill="white" fill-opacity="0"/>
		</clipPath>
	</defs>
	<g clip-path="url(#clip2_399)">
		<path id="Vector" d="M16.13 3.76C16.83 3.23 17.47 2.6 17.96 1.86C17.33 2.14 16.59 2.35 15.85 2.42C16.62 1.97 17.19 1.26 17.47 0.39C16.76 0.81 15.96 1.12 15.15 1.3C14.44 0.56 13.5 0.14 12.44 0.14C10.4 0.14 8.75 1.79 8.75 3.83C8.75 4.11 8.78 4.39 8.85 4.67C5.8 4.5 3.05 3.02 1.23 0.81C0.91 1.33 0.73 1.97 0.73 2.67C0.73 3.94 1.37 5.06 2.39 5.73C1.79 5.69 1.19 5.55 0.7 5.27L0.7 5.31C0.7 7.1 1.96 8.58 3.65 8.93C3.37 9 3.02 9.07 2.7 9.07C2.46 9.07 2.25 9.03 2 9C2.46 10.48 3.83 11.53 5.44 11.57C4.18 12.55 2.6 13.15 0.87 13.15C0.56 13.15 0.28 13.11 0 13.08C1.61 14.13 3.55 14.73 5.66 14.73C12.44 14.73 16.13 9.14 16.13 4.25C16.13 4.08 16.13 3.94 16.13 3.76Z" fill="#292F36" fill-opacity="1.000000" fill-rule="nonzero"/>
	</g>
</svg>
